<svg xmlns="http://www.w3.org/2000/svg" viewBox="0 0 432 432">
  <path d="M20 353c105-70 114 5 216-71s118-82 222-166"
        fill="none" stroke="#FFFDF7" stroke-width="8"
        stroke-linecap="round" stroke-dasharray="15 23" opacity=".9"/>
  <g transform="translate(81 83) scale(1.5)">
    <path d="M34 126c21 17 91 18 116-1-21 25-94 26-116 1Z"
          fill="#17324D" opacity=".3"/>
    <path d="M91 20c24 0 46 20 47 50 1 16 13 28 5 43-10 19-34 22-52 22-25 0-54-7-58-29-3-16 10-25 11-41 2-27 22-45 47-45Z"
          fill="#FFFDF7"/>
    <path d="M58 39c-13-14-9-25 4-27-3 8 3 14 12 19M122 42c15-13 12-25 0-29 1 9-6 14-14 20"
          fill="none" stroke="#FFFDF7" stroke-width="8"
          stroke-linecap="round" stroke-linejoin="round"/>
    <circle cx="73" cy="76" r="7" fill="#17324D"/>
    <circle cx="111" cy="76" r="7" fill="#17324D"/>
    <circle cx="75" cy="73" r="2" fill="#FFFDF7"/>
    <circle cx="113" cy="73" r="2" fill="#FFFDF7"/>
    <path d="M77 95c9 12 20 12 29 0-4 18-25 18-29 0Z"
          fill="#17324D"/>
  </g>
  <path d="m324 79 12 23 26 4-19 18 5 26-24-12-23 12 4-26-18-18 26-4Z"
        fill="#E2A62B" stroke="#FFFDF7" stroke-width="5"
        stroke-linejoin="round"/>
</svg>
