<svg xmlns="http://www.w3.org/2000/svg" viewBox="0 0 1024 1024">
  <rect width="1024" height="1024" fill="#0D625F"/>
  <path d="M-80 865C205 674 228 891 506 683S827 461 1110 234"
        fill="none" stroke="#2B8883" stroke-width="54"
        stroke-linecap="round"/>
  <path d="M-80 865C205 674 228 891 506 683S827 461 1110 234"
        fill="none" stroke="#F7F1E3" stroke-width="12"
        stroke-linecap="round" stroke-dasharray="24 52"/>
  <circle cx="514" cy="470" r="302" fill="#157A76"/>
  <circle cx="514" cy="470" r="279" fill="none"
          stroke="#FFFDF7" stroke-width="18" opacity=".2"/>
  <g transform="translate(245 216) scale(3)">
    <path d="M34 126c21 17 91 18 116-1-21 25-94 26-116 1Z"
          fill="#17324D" opacity=".28"/>
    <path d="M91 20c24 0 46 20 47 50 1 16 13 28 5 43-10 19-34 22-52 22-25 0-54-7-58-29-3-16 10-25 11-41 2-27 22-45 47-45Z"
          fill="#FFFDF7"/>
    <path d="M58 39c-13-14-9-25 4-27-3 8 3 14 12 19M122 42c15-13 12-25 0-29 1 9-6 14-14 20"
          fill="none" stroke="#FFFDF7" stroke-width="8"
          stroke-linecap="round" stroke-linejoin="round"/>
    <circle cx="73" cy="76" r="7" fill="#17324D"/>
    <circle cx="111" cy="76" r="7" fill="#17324D"/>
    <circle cx="75" cy="73" r="2" fill="#FFFDF7"/>
    <circle cx="113" cy="73" r="2" fill="#FFFDF7"/>
    <path d="M77 95c9 12 20 12 29 0-4 18-25 18-29 0Z"
          fill="#17324D"/>
  </g>
  <path d="m776 164 25 47 53 8-38 38 9 54-49-25-48 25 9-54-39-38 54-8Z"
        fill="#E2A62B" stroke="#FFFDF7" stroke-width="12"
        stroke-linejoin="round"/>
</svg>
