<svg xmlns="http://www.w3.org/2000/svg" viewBox="0 0 1200 720">
  <path d="M-40 642c233-156 252 10 480-157s261-181 490-367"
        fill="none" stroke="#D7E8DF" stroke-width="42"
        stroke-linecap="round"/>
  <path d="M-40 642c233-156 252 10 480-157s261-181 490-367"
        fill="none" stroke="#157A76" stroke-width="10"
        stroke-linecap="round" stroke-dasharray="22 42"/>
  <circle cx="600" cy="332" r="250" fill="#0D625F"/>
  <g transform="translate(330 78) scale(3)">
    <path d="M34 126c21 17 91 18 116-1-21 25-94 26-116 1Z"
          fill="#17324D" opacity=".28"/>
    <path d="M91 20c24 0 46 20 47 50 1 16 13 28 5 43-10 19-34 22-52 22-25 0-54-7-58-29-3-16 10-25 11-41 2-27 22-45 47-45Z"
          fill="#FFFDF7"/>
    <path d="M58 39c-13-14-9-25 4-27-3 8 3 14 12 19M122 42c15-13 12-25 0-29 1 9-6 14-14 20"
          fill="none" stroke="#FFFDF7" stroke-width="8"
          stroke-linecap="round" stroke-linejoin="round"/>
    <circle cx="73" cy="76" r="7" fill="#17324D"/>
    <circle cx="111" cy="76" r="7" fill="#17324D"/>
    <circle cx="75" cy="73" r="2" fill="#FFFDF7"/>
    <circle cx="113" cy="73" r="2" fill="#FFFDF7"/>
    <path d="M77 95c9 12 20 12 29 0-4 18-25 18-29 0Z"
          fill="#17324D"/>
  </g>
  <path d="m823 119 22 42 47 7-34 33 8 48-43-22-42 22 8-48-34-33 47-7Z"
        fill="#E2A62B" stroke="#FFFDF7" stroke-width="10"
        stroke-linejoin="round"/>
  <path d="M365 656h470" stroke="#17324D" stroke-width="18"
        stroke-linecap="round" opacity=".14"/>
</svg>
